<svg xmlns="http://www.w3.org/2000/svg" version="1.1" width="433" height="433" viewBox="0 0 433 433" style="shape-rendering:geometricPrecision; text-rendering:geometricPrecision; image-rendering:optimizeQuality; fill-rule:evenodd; clip-rule:evenodd" xmlns:xlink="http://www.w3.org/1999/xlink">
<g><path style="opacity:0.985" fill="#000000" d="M 196.5,-0.5 C 209.833,-0.5 223.167,-0.5 236.5,-0.5C 257.12,2.74876 277.12,7.74876 296.5,14.5C 296.842,15.3382 297.508,15.6716 298.5,15.5C 301.551,17.3523 304.884,18.6857 308.5,19.5C 313.068,22.2704 317.401,24.6038 321.5,26.5C 321.842,27.3382 322.508,27.6716 323.5,27.5C 327.164,30.3346 331.164,32.668 335.5,34.5C 336.29,35.4013 337.29,36.0679 338.5,36.5C 341.128,38.4884 343.795,40.4884 346.5,42.5C 347.436,43.9744 348.77,44.9744 350.5,45.5C 352.808,47.4707 355.142,49.4707 357.5,51.5C 360.141,53.8044 362.808,56.1377 365.5,58.5C 369.167,62.8333 373.167,66.8333 377.5,70.5C 379.942,73.729 382.608,76.729 385.5,79.5C 385.427,81.0269 386.094,82.0269 387.5,82.5C 388.08,84.7488 389.413,86.4154 391.5,87.5C 393.147,90.4735 395.147,93.1401 397.5,95.5C 397.328,96.4916 397.662,97.1583 398.5,97.5C 399.079,100.331 400.412,102.664 402.5,104.5C 402.328,105.492 402.662,106.158 403.5,106.5C 409.809,118.254 415.642,130.254 421,142.5C 425.307,157.592 429.141,172.592 432.5,187.5C 432.5,206.833 432.5,226.167 432.5,245.5C 429.715,255.551 427.215,265.885 425,276.5C 423.102,284.116 420.602,291.45 417.5,298.5C 415.648,301.551 414.314,304.884 413.5,308.5C 410.168,314.497 406.835,320.497 403.5,326.5C 401.44,329.24 399.774,332.24 398.5,335.5C 395.865,339.143 393.199,342.81 390.5,346.5C 389.094,346.973 388.427,347.973 388.5,349.5C 387.833,349.5 387.5,349.833 387.5,350.5C 383.82,354.183 380.486,358.183 377.5,362.5C 376.833,362.5 376.5,362.833 376.5,363.5C 375.833,363.5 375.5,363.833 375.5,364.5C 374.833,364.5 374.5,364.833 374.5,365.5C 373.833,365.5 373.5,365.833 373.5,366.5C 372.833,366.5 372.5,366.833 372.5,367.5C 369.833,369.5 367.5,371.833 365.5,374.5C 364.833,374.5 364.5,374.833 364.5,375.5C 363.833,375.5 363.5,375.833 363.5,376.5C 362.833,376.5 362.5,376.833 362.5,377.5C 361.833,377.5 361.5,377.833 361.5,378.5C 357.518,381.152 353.851,384.152 350.5,387.5C 349.833,387.5 349.5,387.833 349.5,388.5C 347.973,388.427 346.973,389.094 346.5,390.5C 345.833,390.5 345.5,390.833 345.5,391.5C 342.527,393.147 339.86,395.147 337.5,397.5C 336.508,397.328 335.842,397.662 335.5,398.5C 329.746,400.554 325.246,403.554 322,407.5C 321.667,407.167 321.333,406.833 321,406.5C 316.69,408.734 312.524,411.068 308.5,413.5C 305.092,414.367 301.758,415.533 298.5,417C 298.833,417.333 299.167,417.667 299.5,418C 281.547,423.818 263.547,428.651 245.5,432.5C 226.167,432.5 206.833,432.5 187.5,432.5C 160.322,427.947 135.156,419.28 112,406.5C 111.667,406.833 111.333,407.167 111,407.5C 110.722,406.584 110.222,405.918 109.5,405.5C 105.836,402.665 101.836,400.332 97.5,398.5C 97.0269,397.094 96.0269,396.427 94.5,396.5C 92.3805,394.6 90.0472,392.934 87.5,391.5C 86.4154,389.413 84.7488,388.08 82.5,387.5C 79.1486,384.152 75.4819,381.152 71.5,378.5C 68.1667,374.5 64.5,370.833 60.5,367.5C 55.7255,361.605 50.7255,355.938 45.5,350.5C 45.2624,348.596 44.2624,347.262 42.5,346.5C 40.8532,343.527 38.8532,340.86 36.5,338.5C 36.0679,337.29 35.4013,336.29 34.5,335.5C 33.2262,332.24 31.5595,329.24 29.5,326.5C 26.1368,320.433 22.8034,314.433 19.5,308.5C 18.6857,304.884 17.3523,301.551 15.5,298.5C 13.1572,293.005 10.9906,287.005 9,280.5C 5.34273,265.368 2.17606,250.368 -0.5,235.5C -0.5,222.833 -0.5,210.167 -0.5,197.5C 2.53757,176 7.87091,155 15.5,134.5C 19.212,126.075 23.212,117.741 27.5,109.5C 28.9063,109.027 29.573,108.027 29.5,106.5C 30.3382,106.158 30.6716,105.492 30.5,104.5C 32.588,102.664 33.9213,100.331 34.5,97.5C 38.4083,92.6861 42.075,87.6861 45.5,82.5C 56.8062,69.1938 69.1396,56.8604 82.5,45.5C 84.4044,45.2624 85.7377,44.2624 86.5,42.5C 89.205,40.4884 91.8717,38.4884 94.5,36.5C 98.8362,34.668 102.836,32.3346 106.5,29.5C 114.775,24.6944 124.109,20.0278 134.5,15.5C 154.675,8.00192 175.342,2.66859 196.5,-0.5 Z"/></g>
<g><path style="opacity:0.004" fill="#000000" d="M 296.5,13.5 C 297.833,14.1667 297.833,14.1667 296.5,13.5 Z"/></g>
<g><path style="opacity:0.004" fill="#000000" d="M 134.5,15.5 C 133.833,14.1667 133.833,14.1667 134.5,15.5 Z"/></g>
<g><path style="opacity:0.004" fill="#000000" d="M 298.5,14.5 C 299.833,15.1667 299.833,15.1667 298.5,14.5 Z"/></g>
<g><path style="opacity:0.004" fill="#000000" d="M 125.5,17.5 C 126.833,18.1667 126.833,18.1667 125.5,17.5 Z"/></g>
<g><path style="opacity:0.004" fill="#000000" d="M 306.5,17.5 C 307.833,18.1667 307.833,18.1667 306.5,17.5 Z"/></g>
<g><path style="opacity:0.004" fill="#000000" d="M 123.5,18.5 C 124.833,19.1667 124.833,19.1667 123.5,18.5 Z"/></g>
<g><path style="opacity:0.004" fill="#000000" d="M 308.5,18.5 C 309.833,19.1667 309.833,19.1667 308.5,18.5 Z"/></g>
<g><path style="opacity:0.004" fill="#000000" d="M 321.5,25.5 C 322.833,26.1667 322.833,26.1667 321.5,25.5 Z"/></g>
<g><path style="opacity:0.004" fill="#000000" d="M 323.5,26.5 C 324.833,27.1667 324.833,27.1667 323.5,26.5 Z"/></g>
<g><path style="opacity:0.004" fill="#000000" d="M 106.5,29.5 C 105.833,28.1667 105.833,28.1667 106.5,29.5 Z"/></g>
<g><path style="opacity:0.004" fill="#000000" d="M 99.5,31.5 C 100.833,32.1667 100.833,32.1667 99.5,31.5 Z"/></g>
<g><path style="opacity:0.004" fill="#000000" d="M 332.5,31.5 C 333.833,32.1667 333.833,32.1667 332.5,31.5 Z"/></g>
<g><path style="opacity:0.004" fill="#000000" d="M 97.5,32.5 C 98.8333,33.1667 98.8333,33.1667 97.5,32.5 Z"/></g>
<g><path style="opacity:0.004" fill="#000000" d="M 335.5,33.5 C 334.833,32.1667 334.833,32.1667 335.5,33.5 Z"/></g>
<g><path style="opacity:0.004" fill="#000000" d="M 97.5,33.5 C 96.8333,34.1667 96.8333,34.1667 97.5,33.5 Z"/></g>
<g><path style="opacity:0.004" fill="#000000" d="M 335.5,33.5 C 336.833,34.1667 336.833,34.1667 335.5,33.5 Z"/></g>
<g><path style="opacity:0.004" fill="#000000" d="M 94.5,34.5 C 95.8333,35.1667 95.8333,35.1667 94.5,34.5 Z"/></g>
<g><path style="opacity:0.004" fill="#000000" d="M 94.5,35.5 C 94.5,35.8333 94.5,36.1667 94.5,36.5C 93.8299,36.0187 93.8299,35.6853 94.5,35.5 Z"/></g>
<g><path style="opacity:0.004" fill="#000000" d="M 338.5,35.5 C 339.833,36.1667 339.833,36.1667 338.5,35.5 Z"/></g>
<g><path style="opacity:0.004" fill="#000000" d="M 86.5,42.5 C 85.8333,41.1667 85.8333,41.1667 86.5,42.5 Z"/></g>
<g><path style="opacity:0.004" fill="#000000" d="M 346.5,41.5 C 347.833,42.1667 347.833,42.1667 346.5,41.5 Z"/></g>
<g><path style="opacity:0.004" fill="#000000" d="M 82.5,43.5 C 83.8333,44.1667 83.8333,44.1667 82.5,43.5 Z"/></g>
<g><path style="opacity:0.004" fill="#000000" d="M 82.5,44.5 C 82.5,44.8333 82.5,45.1667 82.5,45.5C 81.8299,45.0187 81.8299,44.6853 82.5,44.5 Z"/></g>
<g><path style="opacity:0.004" fill="#000000" d="M 350.5,44.5 C 351.833,45.1667 351.833,45.1667 350.5,44.5 Z"/></g>
<g><path style="opacity:0.004" fill="#000000" d="M 357.5,50.5 C 358.833,51.1667 358.833,51.1667 357.5,50.5 Z"/></g>
<g><path style="opacity:0.004" fill="#000000" d="M 365.5,57.5 C 366.833,58.1667 366.833,58.1667 365.5,57.5 Z"/></g>
<g><path style="opacity:0.004" fill="#000000" d="M 377.5,69.5 C 378.833,70.1667 378.833,70.1667 377.5,69.5 Z"/></g>
<g><path style="opacity:0.004" fill="#000000" d="M 385.5,78.5 C 386.833,79.1667 386.833,79.1667 385.5,78.5 Z"/></g>
<g><path style="opacity:0.004" fill="#000000" d="M 45.5,82.5 C 44.8333,81.1667 44.8333,81.1667 45.5,82.5 Z"/></g>
<g><path style="opacity:0.004" fill="#000000" d="M 388.5,82.5 C 387.833,81.1667 387.833,81.1667 388.5,82.5 Z"/></g>
<g><path style="opacity:0.004" fill="#000000" d="M 44.5,82.5 C 43.8333,83.1667 43.8333,83.1667 44.5,82.5 Z"/></g>
<g><path style="opacity:0.004" fill="#000000" d="M 388.5,82.5 C 389.167,82.5 389.5,82.8333 389.5,83.5C 389.167,83.1667 388.833,82.8333 388.5,82.5 Z"/></g>
<g><path style="opacity:0.004" fill="#000000" d="M 389.5,83.5 C 390.833,84.1667 390.833,84.1667 389.5,83.5 Z"/></g>
<g><path style="opacity:0.004" fill="#000000" d="M 391.5,86.5 C 392.833,87.1667 392.833,87.1667 391.5,86.5 Z"/></g>
<g><path style="opacity:0.004" fill="#000000" d="M 397.5,94.5 C 398.833,95.1667 398.833,95.1667 397.5,94.5 Z"/></g>
<g><path style="opacity:0.004" fill="#000000" d="M 34.5,97.5 C 33.8333,96.1667 33.8333,96.1667 34.5,97.5 Z"/></g>
<g><path style="opacity:0.004" fill="#000000" d="M 399.5,97.5 C 398.833,96.1667 398.833,96.1667 399.5,97.5 Z"/></g>
<g><path style="opacity:0.004" fill="#000000" d="M 33.5,97.5 C 32.8333,98.1667 32.8333,98.1667 33.5,97.5 Z"/></g>
<g><path style="opacity:0.004" fill="#000000" d="M 399.5,97.5 C 400.833,98.1667 400.833,98.1667 399.5,97.5 Z"/></g>
<g><path style="opacity:0.004" fill="#000000" d="M 31.5,99.5 C 32.8333,100.167 32.8333,100.167 31.5,99.5 Z"/></g>
<g><path style="opacity:0.004" fill="#000000" d="M 400.5,99.5 C 401.833,100.167 401.833,100.167 400.5,99.5 Z"/></g>
<g><path style="opacity:0.004" fill="#000000" d="M 30.5,104.5 C 29.8333,103.167 29.8333,103.167 30.5,104.5 Z"/></g>
<g><path style="opacity:0.004" fill="#000000" d="M 402.5,103.5 C 403.833,104.167 403.833,104.167 402.5,103.5 Z"/></g>
<g><path style="opacity:0.004" fill="#000000" d="M 29.5,106.5 C 28.8333,105.167 28.8333,105.167 29.5,106.5 Z"/></g>
<g><path style="opacity:0.004" fill="#000000" d="M 403.5,105.5 C 404.833,106.167 404.833,106.167 403.5,105.5 Z"/></g>
<g><path style="opacity:0.004" fill="#000000" d="M 27.5,109.5 C 26.8333,108.167 26.8333,108.167 27.5,109.5 Z"/></g>
<g><path style="opacity:0.004" fill="#000000" d="M 18.5,123.5 C 19.8333,124.167 19.8333,124.167 18.5,123.5 Z"/></g>
<g><path style="opacity:0.004" fill="#000000" d="M 413.5,123.5 C 414.833,124.167 414.833,124.167 413.5,123.5 Z"/></g>
<g><path style="opacity:0.004" fill="#000000" d="M 17.5,125.5 C 18.8333,126.167 18.8333,126.167 17.5,125.5 Z"/></g>
<g><path style="opacity:0.004" fill="#000000" d="M 414.5,125.5 C 415.833,126.167 415.833,126.167 414.5,125.5 Z"/></g>
<g><path style="opacity:0.004" fill="#000000" d="M 15.5,134.5 C 14.8333,133.167 14.8333,133.167 15.5,134.5 Z"/></g>
<g><path style="opacity:1" fill="#f9f9f9" d="M 185.5,134.5 C 197.238,136.786 207.404,142.119 216,150.5C 221.783,145.03 228.283,140.696 235.5,137.5C 240.062,136.204 244.729,135.538 249.5,135.5C 249.5,143.833 249.5,152.167 249.5,160.5C 246.654,160.552 244.32,161.552 242.5,163.5C 236.371,166.802 232.204,171.802 230,178.5C 229.833,190.667 229.667,202.833 229.5,215C 229.37,228.553 229.87,242.053 231,255.5C 233.607,261.604 237.773,266.271 243.5,269.5C 245.214,270.738 247.214,271.405 249.5,271.5C 249.5,279.833 249.5,288.167 249.5,296.5C 244.729,296.462 240.062,295.796 235.5,294.5C 228.253,291.293 221.753,286.96 216,281.5C 206.383,291.061 194.883,296.394 181.5,297.5C 181.5,288.833 181.5,280.167 181.5,271.5C 190.817,269.69 197.317,264.357 201,255.5C 202.13,242.053 202.63,228.553 202.5,215C 202.333,202.833 202.167,190.667 202,178.5C 198.495,169.158 191.995,163.158 182.5,160.5C 182.5,151.833 182.5,143.167 182.5,134.5C 183.5,134.5 184.5,134.5 185.5,134.5 Z"/></g>
<g><path style="opacity:1" fill="#898989" d="M 185.5,134.5 C 184.5,134.5 183.5,134.5 182.5,134.5C 182.5,143.167 182.5,151.833 182.5,160.5C 181.507,151.682 181.173,142.682 181.5,133.5C 183.099,133.232 184.432,133.566 185.5,134.5 Z"/></g>
<g><path style="opacity:1" fill="#cacaca" d="M 250.5,160.5 C 250.167,160.5 249.833,160.5 249.5,160.5C 249.5,152.167 249.5,143.833 249.5,135.5C 244.729,135.538 240.062,136.204 235.5,137.5C 240.073,134.982 245.073,133.982 250.5,134.5C 250.5,143.167 250.5,151.833 250.5,160.5 Z"/></g>
<g><path style="opacity:1" fill="#4d4d4d" d="M 249.5,160.5 C 249.833,160.5 250.167,160.5 250.5,160.5C 248.064,161.871 245.397,162.871 242.5,163.5C 244.32,161.552 246.654,160.552 249.5,160.5 Z"/></g>
<g><path style="opacity:1" fill="#575757" d="M 243.5,269.5 C 246.152,269.41 248.485,270.076 250.5,271.5C 250.167,271.5 249.833,271.5 249.5,271.5C 247.214,271.405 245.214,270.738 243.5,269.5 Z"/></g>
<g><path style="opacity:1" fill="#c5c5c5" d="M 249.5,271.5 C 249.833,271.5 250.167,271.5 250.5,271.5C 250.5,280.167 250.5,288.833 250.5,297.5C 245.073,298.018 240.073,297.018 235.5,294.5C 240.062,295.796 244.729,296.462 249.5,296.5C 249.5,288.167 249.5,279.833 249.5,271.5 Z"/></g>
<g><path style="opacity:0.004" fill="#000000" d="M 15.5,298.5 C 14.8333,299.167 14.8333,299.167 15.5,298.5 Z"/></g>
<g><path style="opacity:0.004" fill="#000000" d="M 417.5,298.5 C 418.833,299.167 418.833,299.167 417.5,298.5 Z"/></g>
<g><path style="opacity:0.004" fill="#000000" d="M 16.5,304.5 C 17.8333,305.167 17.8333,305.167 16.5,304.5 Z"/></g>
<g><path style="opacity:0.004" fill="#000000" d="M 415.5,304.5 C 416.833,305.167 416.833,305.167 415.5,304.5 Z"/></g>
<g><path style="opacity:0.004" fill="#000000" d="M 17.5,306.5 C 18.8333,307.167 18.8333,307.167 17.5,306.5 Z"/></g>
<g><path style="opacity:0.004" fill="#000000" d="M 414.5,306.5 C 415.833,307.167 415.833,307.167 414.5,306.5 Z"/></g>
<g><path style="opacity:0.004" fill="#000000" d="M 19.5,308.5 C 18.8333,309.167 18.8333,309.167 19.5,308.5 Z"/></g>
<g><path style="opacity:0.004" fill="#000000" d="M 413.5,308.5 C 414.833,309.167 414.833,309.167 413.5,308.5 Z"/></g>
<g><path style="opacity:0.004" fill="#000000" d="M 29.5,326.5 C 28.8333,327.167 28.8333,327.167 29.5,326.5 Z"/></g>
<g><path style="opacity:0.004" fill="#000000" d="M 403.5,326.5 C 404.833,327.167 404.833,327.167 403.5,326.5 Z"/></g>
<g><path style="opacity:0.004" fill="#000000" d="M 29.5,329.5 C 30.8333,330.167 30.8333,330.167 29.5,329.5 Z"/></g>
<g><path style="opacity:0.004" fill="#000000" d="M 31.5,332.5 C 32.8333,333.167 32.8333,333.167 31.5,332.5 Z"/></g>
<g><path style="opacity:0.004" fill="#000000" d="M 400.5,332.5 C 401.833,333.167 401.833,333.167 400.5,332.5 Z"/></g>
<g><path style="opacity:0.004" fill="#000000" d="M 399.5,334.5 C 400.833,335.167 400.833,335.167 399.5,334.5 Z"/></g>
<g><path style="opacity:0.004" fill="#000000" d="M 34.5,335.5 C 33.8333,336.167 33.8333,336.167 34.5,335.5 Z"/></g>
<g><path style="opacity:0.004" fill="#000000" d="M 398.5,335.5 C 398.833,335.5 399.167,335.5 399.5,335.5C 399.315,336.17 398.981,336.17 398.5,335.5 Z"/></g>
<g><path style="opacity:0.004" fill="#000000" d="M 36.5,338.5 C 35.8333,339.167 35.8333,339.167 36.5,338.5 Z"/></g>
<g><path style="opacity:0.008" fill="#000000" d="M 42.5,346.5 C 41.8333,347.167 41.8333,347.167 42.5,346.5 Z"/></g>
<g><path style="opacity:0.004" fill="#000000" d="M 390.5,346.5 C 391.833,347.167 391.833,347.167 390.5,346.5 Z"/></g>
<g><path style="opacity:0.004" fill="#000000" d="M 44.5,350.5 C 43.8333,349.167 43.8333,349.167 44.5,350.5 Z"/></g>
<g><path style="opacity:0.004" fill="#000000" d="M 388.5,349.5 C 389.833,350.167 389.833,350.167 388.5,349.5 Z"/></g>
<g><path style="opacity:0.004" fill="#000000" d="M 44.5,350.5 C 44.8333,350.5 45.1667,350.5 45.5,350.5C 45.3147,351.17 44.9813,351.17 44.5,350.5 Z"/></g>
<g><path style="opacity:0.004" fill="#000000" d="M 387.5,350.5 C 387.833,350.5 388.167,350.5 388.5,350.5C 388.315,351.17 387.981,351.17 387.5,350.5 Z"/></g>
<g><path style="opacity:0.004" fill="#000000" d="M 383.5,356.5 C 384.833,357.167 384.833,357.167 383.5,356.5 Z"/></g>
<g><path style="opacity:0.004" fill="#000000" d="M 383.5,357.5 C 382.833,358.167 382.833,358.167 383.5,357.5 Z"/></g>
<g><path style="opacity:0.004" fill="#000000" d="M 377.5,362.5 C 378.833,363.167 378.833,363.167 377.5,362.5 Z"/></g>
<g><path style="opacity:0.004" fill="#000000" d="M 376.5,363.5 C 376.833,363.5 377.167,363.5 377.5,363.5C 377.315,364.17 376.981,364.17 376.5,363.5 Z"/></g>
<g><path style="opacity:0.004" fill="#000000" d="M 375.5,364.5 C 375.833,364.5 376.167,364.5 376.5,364.5C 376.315,365.17 375.981,365.17 375.5,364.5 Z"/></g>
<g><path style="opacity:0.004" fill="#000000" d="M 374.5,365.5 C 374.833,365.5 375.167,365.5 375.5,365.5C 375.315,366.17 374.981,366.17 374.5,365.5 Z"/></g>
<g><path style="opacity:0.004" fill="#000000" d="M 373.5,366.5 C 373.833,366.5 374.167,366.5 374.5,366.5C 374.315,367.17 373.981,367.17 373.5,366.5 Z"/></g>
<g><path style="opacity:0.004" fill="#000000" d="M 60.5,367.5 C 59.8333,368.167 59.8333,368.167 60.5,367.5 Z"/></g>
<g><path style="opacity:0.004" fill="#000000" d="M 372.5,367.5 C 372.833,367.5 373.167,367.5 373.5,367.5C 373.672,368.492 373.338,369.158 372.5,369.5C 372.5,368.833 372.5,368.167 372.5,367.5 Z"/></g>
<g><path style="opacity:0.004" fill="#000000" d="M 372.5,369.5 C 371.833,370.167 371.833,370.167 372.5,369.5 Z"/></g>
<g><path style="opacity:0.004" fill="#000000" d="M 371.5,370.5 C 370.833,371.167 370.833,371.167 371.5,370.5 Z"/></g>
<g><path style="opacity:0.004" fill="#000000" d="M 370.5,371.5 C 369.833,372.167 369.833,372.167 370.5,371.5 Z"/></g>
<g><path style="opacity:0.004" fill="#000000" d="M 365.5,374.5 C 366.833,375.167 366.833,375.167 365.5,374.5 Z"/></g>
<g><path style="opacity:0.004" fill="#000000" d="M 364.5,375.5 C 364.833,375.5 365.167,375.5 365.5,375.5C 365.315,376.17 364.981,376.17 364.5,375.5 Z"/></g>
<g><path style="opacity:0.004" fill="#000000" d="M 363.5,376.5 C 363.833,376.5 364.167,376.5 364.5,376.5C 364.315,377.17 363.981,377.17 363.5,376.5 Z"/></g>
<g><path style="opacity:0.004" fill="#000000" d="M 362.5,377.5 C 362.833,377.5 363.167,377.5 363.5,377.5C 363.315,378.17 362.981,378.17 362.5,377.5 Z"/></g>
<g><path style="opacity:0.004" fill="#000000" d="M 71.5,378.5 C 70.8333,379.167 70.8333,379.167 71.5,378.5 Z"/></g>
<g><path style="opacity:0.004" fill="#000000" d="M 361.5,378.5 C 361.833,378.5 362.167,378.5 362.5,378.5C 362.315,379.17 361.981,379.17 361.5,378.5 Z"/></g>
<g><path style="opacity:0.004" fill="#000000" d="M 357.5,382.5 C 358.833,383.167 358.833,383.167 357.5,382.5 Z"/></g>
<g><path style="opacity:0.004" fill="#000000" d="M 357.5,383.5 C 356.833,384.167 356.833,384.167 357.5,383.5 Z"/></g>
<g><path style="opacity:0.004" fill="#000000" d="M 82.5,387.5 C 82.5,387.833 82.5,388.167 82.5,388.5C 81.8299,388.019 81.8299,387.685 82.5,387.5 Z"/></g>
<g><path style="opacity:0.004" fill="#000000" d="M 350.5,387.5 C 351.833,388.167 351.833,388.167 350.5,387.5 Z"/></g>
<g><path style="opacity:0.004" fill="#000000" d="M 82.5,388.5 C 83.8333,389.167 83.8333,389.167 82.5,388.5 Z"/></g>
<g><path style="opacity:0.004" fill="#000000" d="M 349.5,388.5 C 349.833,388.5 350.167,388.5 350.5,388.5C 350.315,389.17 349.981,389.17 349.5,388.5 Z"/></g>
<g><path style="opacity:0.004" fill="#000000" d="M 346.5,390.5 C 347.833,391.167 347.833,391.167 346.5,390.5 Z"/></g>
<g><path style="opacity:0.004" fill="#000000" d="M 87.5,391.5 C 86.8333,392.167 86.8333,392.167 87.5,391.5 Z"/></g>
<g><path style="opacity:0.004" fill="#000000" d="M 345.5,391.5 C 345.833,391.5 346.167,391.5 346.5,391.5C 346.315,392.17 345.981,392.17 345.5,391.5 Z"/></g>
<g><path style="opacity:0.004" fill="#000000" d="M 94.5,396.5 C 94.5,396.833 94.5,397.167 94.5,397.5C 93.8299,397.019 93.8299,396.685 94.5,396.5 Z"/></g>
<g><path style="opacity:0.004" fill="#000000" d="M 94.5,397.5 C 95.8333,398.167 95.8333,398.167 94.5,397.5 Z"/></g>
<g><path style="opacity:0.004" fill="#000000" d="M 337.5,397.5 C 338.833,398.167 338.833,398.167 337.5,397.5 Z"/></g>
<g><path style="opacity:0.004" fill="#000000" d="M 97.5,398.5 C 97.5,398.833 97.5,399.167 97.5,399.5C 96.8299,399.019 96.8299,398.685 97.5,398.5 Z"/></g>
<g><path style="opacity:0.004" fill="#000000" d="M 335.5,398.5 C 336.833,399.167 336.833,399.167 335.5,398.5 Z"/></g>
<g><path style="opacity:0.004" fill="#000000" d="M 97.5,399.5 C 98.8333,400.167 98.8333,400.167 97.5,399.5 Z"/></g>
<g><path style="opacity:0.004" fill="#000000" d="M 335.5,399.5 C 334.833,400.167 334.833,400.167 335.5,399.5 Z"/></g>
<g><path style="opacity:0.004" fill="#000000" d="M 99.5,400.5 C 100.833,401.167 100.833,401.167 99.5,400.5 Z"/></g>
<g><path style="opacity:0.004" fill="#000000" d="M 332.5,400.5 C 333.833,401.167 333.833,401.167 332.5,400.5 Z"/></g>
<g><path style="opacity:0.004" fill="#000000" d="M 109.5,405.5 C 108.833,406.167 108.833,406.167 109.5,405.5 Z"/></g>
<g><path style="opacity:0.004" fill="#000000" d="M 319.5,408.5 C 320.833,409.167 320.833,409.167 319.5,408.5 Z"/></g>
<g><path style="opacity:0.004" fill="#000000" d="M 123.5,413.5 C 124.833,414.167 124.833,414.167 123.5,413.5 Z"/></g>
<g><path style="opacity:0.004" fill="#000000" d="M 308.5,413.5 C 309.833,414.167 309.833,414.167 308.5,413.5 Z"/></g>
<g><path style="opacity:0.004" fill="#000000" d="M 125.5,414.5 C 126.833,415.167 126.833,415.167 125.5,414.5 Z"/></g>
<g><path style="opacity:0.004" fill="#000000" d="M 306.5,414.5 C 307.833,415.167 307.833,415.167 306.5,414.5 Z"/></g>
</svg>
