<svg width="827" height="827" viewBox="0 0 827 827" fill="none" xmlns="http://www.w3.org/2000/svg">
<g clip-path="url(#clip0_5804_155)">
<rect width="827" height="827" fill="black"/>
<path d="M0 0H827V827H0V0Z" fill="black"/>
<g clip-path="url(#clip1_5804_155)">
<path d="M303.327 250.015C303.327 230.53 291.382 205.865 241.176 205.865C220.572 205.865 163.868 205.865 163.868 205.865L141.891 307.422C141.891 307.422 183.67 307.422 222.486 307.422C285.409 307.422 303.327 277.67 303.327 250.015Z" fill="white"/>
<path d="M511.57 250.015C511.57 230.53 499.655 205.865 449.465 205.865C428.845 205.865 372.142 205.865 372.142 205.865L350.18 307.406C350.18 307.406 391.943 307.406 430.728 307.406C493.682 307.422 511.57 277.67 511.57 250.015Z" fill="white"/>
<path d="M275.437 402.858C275.437 383.373 263.491 358.647 213.285 358.647C192.681 358.647 135.978 358.647 135.978 358.647L114 460.265C114 460.265 155.779 460.265 194.564 460.265C257.503 460.265 275.437 430.436 275.437 402.858Z" fill="white"/>
<path d="M483.687 402.858C483.687 383.373 471.726 358.647 421.566 358.647C400.931 358.647 344.259 358.647 344.259 358.647L322.25 460.265C322.25 460.265 364.029 460.265 402.845 460.265C465.799 460.265 483.687 430.436 483.687 402.858Z" fill="white"/>
<path d="M701.562 340.873C701.562 321.373 689.601 296.662 639.441 296.662C618.806 296.662 562.134 296.662 562.134 296.662L540.125 398.265C540.125 398.265 581.935 398.265 620.689 398.265C683.643 398.265 701.562 368.513 701.562 340.873Z" fill="white"/>
<path d="M671.531 500.006C671.531 480.506 659.601 455.856 609.41 455.856C588.806 455.856 532.103 455.856 532.103 455.856L510.125 557.413C510.125 557.413 551.873 557.413 590.689 557.413C653.628 557.413 671.531 527.584 671.531 500.006Z" fill="white"/>
<path d="M453.757 562.007C453.757 542.429 441.843 517.718 391.683 517.718C371.033 517.718 314.329 517.718 314.329 517.718L292.352 619.321C292.352 619.321 334.131 619.321 372.916 619.321C435.87 619.337 453.757 589.585 453.757 562.007Z" fill="white"/>
</g>
</g>
<defs>
<clipPath id="clip0_5804_155">
<rect width="827" height="827" fill="white"/>
</clipPath>
<clipPath id="clip1_5804_155">
<rect width="600" height="416" fill="white" transform="translate(114 206)"/>
</clipPath>
</defs>
</svg>
