<svg width="827" height="827" viewBox="0 0 827 827" fill="none" xmlns="http://www.w3.org/2000/svg">
<rect width="827" height="827" fill="#FF9900"/>
<path d="M166.174 358.566C163.886 360.374 163.404 363.385 164.729 367.602C165.934 371.337 168.765 375.974 173.222 381.516C191.171 403.682 212.554 422.113 237.371 436.81C262.187 451.508 288.751 462.349 317.061 469.336C345.49 476.444 374.523 479.998 404.158 479.998C442.105 479.998 478.246 474.457 512.579 463.373C546.912 452.41 575.583 436.99 598.593 417.114C606.664 410.007 610.7 404.345 610.7 400.128C610.7 398.562 610.037 396.995 608.712 395.429C606.905 393.623 604.736 393.021 602.207 393.623C599.677 394.224 596.123 395.731 591.545 398.14C569.5 409.705 542.636 418.921 510.953 425.788C479.391 432.775 446.442 436.268 412.109 436.268C369.584 436.268 328.505 430.486 288.871 418.921C249.237 407.356 214.12 389.286 183.522 364.711C179.065 361.217 175.45 358.988 172.68 358.024C170.029 357.06 167.861 357.242 166.174 358.566Z" fill="white"/>
<path d="M567.686 367.612C565.156 370.022 564.493 372.552 565.698 375.202C566.542 377.13 568.168 378.214 570.578 378.455C572.986 378.816 576.42 378.575 580.877 377.732C588.105 376.166 595.634 375.081 603.465 374.479C611.295 373.998 618.102 374.118 623.884 374.84C629.667 375.684 633.281 377.13 634.727 379.177C636.895 382.431 636.112 389.296 632.377 399.778C628.764 410.258 623.824 420.437 617.56 430.316C615.15 434.291 613.705 437.423 613.223 439.713C612.741 442.001 613.344 443.929 615.03 445.495C616.114 446.578 617.319 447.121 618.643 447.121C622.138 447.121 627.198 444.049 633.823 437.905C645.75 427.545 654.121 415.258 658.941 401.043C661.591 393.693 663.217 385.984 663.819 377.912C664.422 369.842 663.518 364.059 661.108 360.565C658.82 357.192 653.76 354.421 645.93 352.253C638.22 350.085 630.45 349 622.619 349C607.319 349 592.803 352.615 579.071 359.843C574.011 362.614 570.217 365.203 567.686 367.612Z" fill="white"/>
</svg>
