<svg width="827" height="827" viewBox="0 0 827 827" fill="none" xmlns="http://www.w3.org/2000/svg">
<g clip-path="url(#clip0_5698_155)">
<path d="M0 0H827V827H0V0Z" fill="black"/>
<path d="M367.033 505H431.666L399.353 476.009L367.033 505ZM569.222 505H613L544.442 443.33H566.275C576.135 443.319 585.589 439.392 592.561 432.409C599.533 425.426 603.454 415.959 603.465 406.083V360.247C603.454 350.371 599.533 340.904 592.561 333.921C585.589 326.938 576.135 323.01 566.275 323H367L399.366 352.149H566.275C568.419 352.153 570.473 353.007 571.988 354.525C573.504 356.042 574.357 358.1 574.36 360.247V406.083C574.359 408.23 573.506 410.289 571.99 411.807C570.474 413.325 568.419 414.179 566.275 414.181H468.318L569.222 505Z" fill="white"/>
<path d="M106 413.86L387.811 433.816C408.382 435.276 428.556 427.977 443 413.86C428.358 399.863 408.422 392.764 388.142 394.177L106 413.86Z" fill="#E42727"/>
</g>
<defs>
<clipPath id="clip0_5698_155">
<rect width="827" height="827" fill="white"/>
</clipPath>
</defs>
</svg>
