<svg width="827" height="827" viewBox="0 0 827 827" fill="none" xmlns="http://www.w3.org/2000/svg">
<g clip-path="url(#clip0_5817_160)">
<path d="M0 0H827V827H0V0Z" fill="#0E61FE"/>
<path d="M612.125 310.125H708.855V295.357H617.59L612.273 310.125H612.125ZM538.286 310.125L532.527 295.357H443.033V310.125H538.138H538.286ZM443.033 324.893H543.75L549.362 339.661H443.033V324.893ZM410.544 310.125C398.844 300.639 384.257 295.429 369.194 295.357H251.051V310.125H410.544ZM251.051 324.893H423.983C426.937 329.323 429.595 334.344 431.367 339.661H251.051V324.893ZM236.283 310.125V295.357H118.141V310.125H236.283ZM118.141 324.893H236.283V339.661H118.141V324.893ZM147.676 354.429H206.748V369.196H147.676V354.429ZM147.676 398.732V383.964H206.748V398.732H147.676ZM147.676 428.268V413.5H206.748V428.268H147.676ZM147.676 457.804V443.036H206.748V457.804H147.676ZM147.676 487.339V472.571H206.748V487.339H147.676ZM147.676 502.107H118.141V516.875H236.283V502.107H147.676ZM251.051 502.107V516.875H425.312C428.856 512.445 431.662 507.424 434.025 502.107H251.051ZM369.194 487.339H438.603C439.637 482.614 440.08 477.593 440.08 472.571H369.194V487.339ZM324.891 487.339V472.571H280.587V487.339H324.891ZM280.587 457.804H438.603C437.602 452.733 436.068 447.783 434.025 443.036H280.587V457.804ZM280.587 428.268H425.312C421.109 422.674 416.138 417.703 410.544 413.5H280.587V428.268ZM280.587 398.732H423.983C426.937 394.302 429.595 389.281 431.367 383.964H280.587V398.732ZM280.587 369.196V354.429H324.891V369.196H280.587ZM369.194 354.429H434.763C435.307 359.336 435.307 364.289 434.763 369.196H369.194V354.429ZM472.569 383.964V398.732H571.809L566.197 383.964H472.569ZM560.586 369.196H472.569V354.429H554.974L560.586 369.196ZM585.248 383.964L579.932 398.732H679.319V383.964H585.248ZM679.319 369.196H590.712L596.029 354.429H679.319V369.196ZM679.319 339.661H708.855V324.893H606.809L601.493 339.661H679.319ZM679.319 413.5H575.944V428.268H679.319V413.5ZM679.319 443.036H620.248V457.804H679.319V443.036ZM679.319 472.571H620.248V487.339H679.319V472.571ZM679.319 502.107H620.248V516.875H708.855V502.107H679.319ZM708.855 531.643H620.248V546.411H708.855V531.643ZM575.944 546.411L581.704 531.643H575.944V546.411ZM575.944 516.875H587.315L592.927 502.107H575.944V516.875ZM575.944 502.107V516.875H564.721L559.109 502.107H575.944ZM575.944 487.339H598.687L604.298 472.571H575.944V487.339ZM575.944 472.571V487.339H553.645L548.033 472.571H575.797H575.944ZM575.944 457.804H609.91L615.817 443.036H575.944V457.804ZM575.944 443.036V457.804H542.421L536.809 443.036H575.944ZM575.944 428.268V413.5H472.569V428.268H575.944ZM472.569 443.036V457.804H531.641V443.036H472.569ZM531.641 472.571H472.569V487.339H531.641V472.571ZM531.641 502.107H443.033V516.875H531.641V502.107ZM531.641 531.643H443.033V546.411H531.641V531.643ZM369.194 546.411C384.162 545.823 398.591 540.67 410.544 531.643H251.051V546.411H369.194ZM236.283 546.411V531.643H118.141V546.411H236.283ZM570.332 531.643H575.797V546.411L570.332 531.643Z" fill="white"/>
</g>
<defs>
<clipPath id="clip0_5817_160">
<rect width="827" height="827" fill="white"/>
</clipPath>
</defs>
</svg>
