<svg width="827" height="827" viewBox="0 0 827 827" fill="none" xmlns="http://www.w3.org/2000/svg">
<g clip-path="url(#clip0_5693_230)">
<rect width="827" height="827" fill="black"/>
<path d="M0 0H827V827H0V0Z" fill="black"/>
<path d="M404.996 178C487.176 178 568.089 205.588 568.089 287.08C568.089 350.856 505.184 387.302 468.152 396.411C541.206 405.268 614 441.462 614 514.096C614 604.697 541.206 650 450.143 650H214V632.285H250.271C277.412 623.427 277.412 623.427 277.412 595.84V505.234V323.525V232.919C277.412 205.588 277.412 205.588 250.271 205.588C214 196.73 214 196.73 214 196.73V178H404.996ZM350.208 205.588V396.411H396.117C459.278 396.411 496.054 368.828 496.054 296.193C496.054 241.777 459.278 196.73 396.117 196.73C377.349 196.73 350.208 205.588 350.208 205.588ZM350.208 414.126V578.125C350.208 623.427 377.349 632.285 432.134 632.285C505.184 632.285 541.206 586.982 541.206 514.096C541.206 441.462 468.152 414.126 396.117 414.126H350.208Z" fill="white"/>
</g>
<defs>
<clipPath id="clip0_5693_230">
<rect width="827" height="827" fill="white"/>
</clipPath>
</defs>
</svg>
