<svg width="827" height="827" viewBox="0 0 827 827" fill="none" xmlns="http://www.w3.org/2000/svg">
<g clip-path="url(#clip0_5869_157)">
<rect width="827" height="827" fill="#24344B"/>
<path d="M0 0H827V827H0V0Z" fill="#24344B"/>
<path d="M254.789 139V196.895H196.895V254.789H139V283.737H196.895V312.684H139V341.632H196.895V370.579H139V399.526H196.895V428.474H139V457.421H196.895V486.368H139V515.316H196.895V544.263H139V573.211H196.895V631.105H254.789V689H283.737V631.105H312.684V689H341.632V631.105H370.579V689H399.526V631.105H428.474V689H457.421V631.105H486.368V689H515.316V631.105H544.263V689H573.211V631.105H631.105V573.211H689V544.263H631.105V515.316H689V486.368H631.105V457.421H689V428.474H631.105V399.526H689V370.579H631.105V341.632H689V312.684H631.105V283.737H689V254.789H631.105V240.316L587.684 196.895H573.211V139H544.263V196.895H515.316V139H486.368V196.895H457.421V139H428.474V196.895H399.526V139H370.579V196.895H341.632V139H312.684V196.895H283.737V139H254.789ZM225.842 225.842H573.211L602.158 254.789V602.158H225.842V225.842Z" fill="#F9BD29"/>
</g>
<defs>
<clipPath id="clip0_5869_157">
<rect width="827" height="827" fill="white"/>
</clipPath>
</defs>
</svg>
