<svg width="827" height="827" viewBox="0 0 827 827" fill="none" xmlns="http://www.w3.org/2000/svg">
<g clip-path="url(#clip0_5943_171)">
<path d="M0 0H827V827H0V0Z" fill="url(#paint0_linear_5943_171)"/>
<path d="M0 0H827V827H0V0Z" fill="url(#paint1_linear_5943_171)"/>
<path fill-rule="evenodd" clip-rule="evenodd" d="M88.6094 339.661V487.339H110.761V390.019L236.288 487.339V457.804L88.6094 339.661ZM324.895 487.339C344.479 487.339 363.26 479.56 377.107 465.712C390.955 451.865 398.734 433.083 398.734 413.5C398.734 393.917 390.955 375.135 377.107 361.288C363.26 347.44 344.479 339.661 324.895 339.661C305.312 339.661 286.53 347.44 272.683 361.288C258.835 375.135 251.056 393.917 251.056 413.5C251.056 433.083 258.835 451.865 272.683 465.712C286.53 479.56 305.312 487.339 324.895 487.339ZM324.895 465.187C338.603 465.187 351.75 459.742 361.444 450.049C371.137 440.355 376.583 427.208 376.583 413.5C376.583 399.792 371.137 386.645 361.444 376.951C351.75 367.258 338.603 361.812 324.895 361.812C311.187 361.812 298.04 367.258 288.346 376.951C278.653 386.645 273.208 399.792 273.208 413.5C273.208 427.208 278.653 440.355 288.346 450.049C298.04 459.742 311.187 465.187 324.895 465.187ZM499.156 339.661H531.645L447.616 413.795L531.645 487.339H499.156L413.502 413.795L499.156 339.661ZM553.797 339.661H575.949V487.339H553.797V339.661ZM728.796 487.339L712.699 457.804H632.214L614.64 487.339H590.717L619.514 435.652H700.737L659.387 360.336L672.678 339.661L753.163 487.339H728.796Z" fill="white"/>
</g>
<defs>
<linearGradient id="paint0_linear_5943_171" x1="0" y1="413.5" x2="827" y2="413.5" gradientUnits="userSpaceOnUse">
<stop stop-color="#013FF5"/>
<stop offset="1" stop-color="#00EF18"/>
</linearGradient>
<linearGradient id="paint1_linear_5943_171" x1="413.5" y1="0" x2="413.5" y2="827" gradientUnits="userSpaceOnUse">
<stop stop-color="#07FCFA"/>
<stop offset="0.55" stop-color="#07FCFA" stop-opacity="0"/>
</linearGradient>
<clipPath id="clip0_5943_171">
<rect width="827" height="827" fill="white"/>
</clipPath>
</defs>
</svg>
