<svg width="827" height="827" viewBox="0 0 827 827" fill="none" xmlns="http://www.w3.org/2000/svg">
<g clip-path="url(#clip0_5628_173)">
<path d="M0 0H827V827H0V0Z" fill="#24344B"/>
<path d="M159.931 515V311.364H282.829V333.239H184.59V402.045H276.465V423.92H184.59V493.125H284.42V515H159.931ZM358.663 515L302.982 311.364H328.038L370.595 477.216H372.584L415.936 311.364H443.777L487.129 477.216H489.118L531.675 311.364H556.732L501.05 515H475.595L430.652 352.727H429.061L384.118 515H358.663ZM642.311 311.364H666.97V456.932C666.97 469.924 664.583 480.961 659.811 490.043C655.038 499.124 648.31 506.018 639.626 510.724C630.942 515.431 620.701 517.784 608.901 517.784C597.765 517.784 587.855 515.762 579.171 511.719C570.488 507.609 563.66 501.776 558.688 494.219C553.717 486.662 551.231 477.68 551.231 467.273H575.492C575.492 473.04 576.918 478.078 579.768 482.386C582.685 486.629 586.662 489.943 591.7 492.33C596.738 494.716 602.471 495.909 608.901 495.909C615.994 495.909 622.026 494.418 626.998 491.435C631.97 488.452 635.748 484.077 638.333 478.31C640.985 472.476 642.311 465.35 642.311 456.932V311.364Z" fill="#F9BD29"/>
</g>
<defs>
<clipPath id="clip0_5628_173">
<rect width="827" height="827" fill="white"/>
</clipPath>
</defs>
</svg>
