<svg width="827" height="827" viewBox="0 0 827 827" fill="none" xmlns="http://www.w3.org/2000/svg">
<g clip-path="url(#clip0_5628_177)">
<path d="M0 0H827V827H0V0Z" fill="#24344B"/>
<path d="M134.091 516V312.364H256.989V334.239H158.75V403.045H250.625V424.92H158.75V494.125H258.58V516H134.091ZM332.824 516L277.142 312.364H302.199L344.755 478.216H346.744L390.096 312.364H417.937L461.289 478.216H463.278L505.835 312.364H530.892L475.21 516H449.755L404.812 353.727H403.221L358.278 516H332.824ZM538.516 312.364H566.755L623.232 407.42H625.618L682.096 312.364H710.334L636.755 432.08V516H612.096V432.08L538.516 312.364Z" fill="#F9BD29"/>
</g>
<defs>
<clipPath id="clip0_5628_177">
<rect width="827" height="827" fill="white"/>
</clipPath>
</defs>
</svg>
