<svg width="827" height="827" viewBox="0 0 827 827" fill="none" xmlns="http://www.w3.org/2000/svg">
<rect width="827" height="827" fill="black"/>
<path fill-rule="evenodd" clip-rule="evenodd" d="M446.911 202.483L446.747 295.874L446.582 389.265L438.899 367.585C438.896 367.578 438.886 367.55 438.884 367.543L428.955 575.456C438.717 603.023 443.947 617.74 444.006 617.798C444.083 617.875 449.646 618.211 456.368 618.545C476.737 619.555 501.977 621.721 521.124 624.1C525.557 624.651 529.372 624.933 529.602 624.727C529.832 624.521 529.957 529.432 529.88 413.418L529.74 202.483H446.911ZM297.097 202.205V413.354C297.097 529.486 297.21 624.617 297.349 624.756C297.489 624.895 304.68 624.216 313.332 623.247C321.983 622.278 333.939 621.073 339.901 620.57C349.045 619.798 376.346 618.043 379.507 618.023C380.426 618.018 380.485 613.273 380.619 528.59L380.759 439.162L387.365 457.852C388.386 460.74 388.706 461.642 389.701 464.457L399.627 256.595C397.524 250.648 398.626 253.77 396.216 246.955C388.106 224.024 381.223 204.575 380.922 203.734L380.373 202.205H297.097Z" fill="#B1060F" stroke="black" stroke-width="0.310123"/>
<path fill-rule="evenodd" clip-rule="evenodd" d="M297.097 202.205V320.729L380.591 542.209C380.6 537.134 380.61 534.391 380.619 528.59L380.759 439.162L387.365 457.852C424.135 561.896 443.89 617.682 444.006 617.798C444.083 617.875 449.646 618.211 456.369 618.545C476.737 619.555 501.977 621.721 521.124 624.1C525.557 624.651 529.372 624.933 529.602 624.727C529.76 624.586 529.863 577.961 529.89 512.187L446.787 273.265L446.747 295.874L446.582 389.265L438.899 367.585C431.391 346.401 426.378 332.234 396.216 246.955C388.106 224.024 381.223 204.575 380.922 203.734L380.373 202.205H297.097Z" fill="url(#paint0_radial_5337_20)"/>
<path fill-rule="evenodd" clip-rule="evenodd" d="M297.099 202.205L380.76 439.27V439.162L387.365 457.852C424.135 561.896 443.89 617.682 444.006 617.798C444.083 617.875 449.646 618.211 456.369 618.545C476.737 619.555 501.977 621.721 521.124 624.1C525.534 624.648 529.33 624.929 529.595 624.73L446.582 389.222V389.265L438.899 367.585C431.391 346.401 426.378 332.234 396.216 246.955C388.106 224.024 381.224 204.575 380.922 203.734L380.373 202.205L297.099 202.205Z" fill="#E50914"/>
<path fill-rule="evenodd" clip-rule="evenodd" d="M446.911 202.483L446.747 295.874L446.582 389.265L438.899 367.585C438.896 367.578 438.886 367.55 438.884 367.543L428.955 575.456C438.717 603.023 443.947 617.74 444.006 617.798C444.083 617.875 449.646 618.211 456.368 618.545C476.737 619.555 501.977 621.721 521.124 624.1C525.557 624.651 529.372 624.933 529.602 624.727C529.832 624.521 529.957 529.432 529.88 413.418L529.74 202.483H446.911ZM297.097 202.205V413.354C297.097 529.486 297.21 624.617 297.349 624.756C297.489 624.895 304.68 624.216 313.332 623.247C321.983 622.278 333.939 621.073 339.901 620.57C349.045 619.798 376.346 618.043 379.507 618.023C380.426 618.018 380.485 613.273 380.619 528.59L380.759 439.162L387.365 457.852C388.386 460.74 388.706 461.642 389.701 464.457L399.627 256.595C397.524 250.648 398.626 253.77 396.216 246.955C388.106 224.024 381.223 204.575 380.922 203.734L380.373 202.205H297.097Z" fill="#B1060F" stroke="black" stroke-width="0.310123"/>
<path fill-rule="evenodd" clip-rule="evenodd" d="M297.097 202.205V320.729L380.591 542.209C380.6 537.134 380.61 534.391 380.619 528.59L380.759 439.162L387.365 457.852C424.135 561.896 443.89 617.682 444.006 617.798C444.083 617.875 449.646 618.211 456.369 618.545C476.737 619.555 501.977 621.721 521.124 624.1C525.557 624.651 529.372 624.933 529.602 624.727C529.76 624.586 529.863 577.961 529.89 512.187L446.787 273.265L446.747 295.874L446.582 389.265L438.899 367.585C431.391 346.401 426.378 332.234 396.216 246.955C388.106 224.024 381.223 204.575 380.922 203.734L380.373 202.205H297.097Z" fill="url(#paint1_radial_5337_20)"/>
<path fill-rule="evenodd" clip-rule="evenodd" d="M297.099 202.205L380.76 439.27V439.162L387.365 457.852C424.135 561.896 443.89 617.682 444.006 617.798C444.083 617.875 449.646 618.211 456.369 618.545C476.737 619.555 501.977 621.721 521.124 624.1C525.534 624.648 529.33 624.929 529.595 624.73L446.582 389.222V389.265L438.899 367.585C431.391 346.401 426.378 332.234 396.216 246.955C388.106 224.024 381.224 204.575 380.922 203.734L380.373 202.205L297.099 202.205Z" fill="#E50914"/>
<defs>
<radialGradient id="paint0_radial_5337_20" cx="0" cy="0" r="1" gradientTransform="matrix(49.86 -17.2633 632.355 1826.32 409.628 411.043)" gradientUnits="userSpaceOnUse">
<stop/>
<stop offset="1" stop-opacity="0"/>
</radialGradient>
<radialGradient id="paint1_radial_5337_20" cx="0" cy="0" r="1" gradientTransform="matrix(49.86 -17.2633 632.355 1826.32 409.628 411.043)" gradientUnits="userSpaceOnUse">
<stop/>
<stop offset="1" stop-opacity="0"/>
</radialGradient>
</defs>
</svg>
