<svg width="827" height="827" viewBox="0 0 827 827" fill="none" xmlns="http://www.w3.org/2000/svg">
<g clip-path="url(#clip0_5815_170)">
<path d="M0 0H827V827H0V0Z" fill="#017FC2"/>
<path d="M767.926 516.875V472.571H679.319V310.125H635.016V516.875H767.926Z" fill="white"/>
<path fill-rule="evenodd" clip-rule="evenodd" d="M255.554 387.464L371.704 295.357H371.777L404.533 322.944L294.335 408.892L318.155 430.38L428.383 341.448L461.138 369.034L404.533 415.051L350.91 458.025L374.731 479.512L487.336 387.405V310.125H531.639V472.571H620.247V516.875H487.336V439.595L371.704 531.643L255.554 439.595V437.823C250.384 459.125 238.579 478.234 221.844 492.392C205.108 506.55 184.308 515.025 162.443 516.594V516.875H73.8359V310.125H162.443V310.391C184.312 311.962 205.115 320.441 221.851 334.605C238.587 348.769 250.389 367.884 255.554 389.192V387.464ZM118.14 354.429H155.059C170.726 354.429 185.751 360.652 196.829 371.73C207.907 382.808 214.131 397.833 214.131 413.5C214.131 429.167 207.907 444.192 196.829 455.27C185.751 466.348 170.726 472.571 155.059 472.571H118.14V354.429Z" fill="white"/>
</g>
<defs>
<clipPath id="clip0_5815_170">
<rect width="827" height="827" fill="white"/>
</clipPath>
</defs>
</svg>
