<svg width="827" height="827" viewBox="0 0 827 827" fill="none" xmlns="http://www.w3.org/2000/svg">
<rect width="827" height="827" fill="#1ABBEF"/>
<g clip-path="url(#clip0_5625_155)">
<path d="M170.617 353.409H207.796C208.277 353.409 208.739 353.601 209.08 353.942C209.42 354.283 209.611 354.745 209.611 355.228C209.62 355.639 209.487 356.04 209.233 356.364L164.037 413.186C163.869 413.373 163.776 413.616 163.776 413.867C163.776 414.119 163.869 414.362 164.037 414.549L209.422 471.371C209.715 471.749 209.848 472.227 209.791 472.702C209.735 473.177 209.493 473.611 209.12 473.909C208.8 474.168 208.397 474.303 207.985 474.288H170.617C170.342 474.288 170.071 474.227 169.822 474.109C169.574 473.991 169.354 473.819 169.18 473.606L135.141 429.285C135.041 429.147 134.911 429.034 134.76 428.955C134.609 428.876 134.441 428.833 134.271 428.83H123.416C123.344 428.852 123.276 428.888 123.218 428.936C123.159 428.984 123.111 429.043 123.076 429.11C123.04 429.178 123.019 429.251 123.013 429.326C123.006 429.402 123.015 429.478 123.038 429.55V472.772C123.043 473.013 123 473.251 122.91 473.474C122.821 473.697 122.687 473.9 122.518 474.07C122.348 474.24 122.146 474.373 121.923 474.463C121.701 474.552 121.462 474.596 121.223 474.591H90.9654C90.7134 474.618 90.4584 474.591 90.2178 474.511C89.9771 474.431 89.7562 474.301 89.5699 474.129C89.3837 473.957 89.2363 473.746 89.1378 473.512C89.0393 473.279 88.9918 473.026 88.9987 472.772V355.341C88.9773 355.092 89.0087 354.841 89.0909 354.604C89.173 354.368 89.304 354.151 89.4753 353.969C89.6467 353.787 89.8545 353.643 90.0851 353.546C90.3158 353.45 90.5642 353.403 90.8141 353.409H121.071C121.323 353.382 121.578 353.409 121.819 353.489C122.06 353.569 122.281 353.699 122.467 353.871C122.653 354.043 122.8 354.254 122.899 354.488C122.997 354.721 123.045 354.974 123.038 355.228V398.298C123.038 398.368 123.052 398.437 123.078 398.501C123.105 398.566 123.144 398.624 123.193 398.673C123.242 398.723 123.301 398.762 123.365 398.788C123.429 398.815 123.498 398.829 123.568 398.829H134.309C134.476 398.833 134.643 398.798 134.794 398.725C134.945 398.653 135.077 398.545 135.179 398.412L169.218 354.091C169.391 353.886 169.605 353.72 169.846 353.603C170.087 353.485 170.35 353.419 170.617 353.409ZM412.07 414.019C412.07 449.362 383.779 478 344.748 478C305.716 478 277.387 449.324 277.387 413.981C277.387 378.638 305.678 350 344.748 350C383.817 350 412.07 378.638 412.07 413.981V414.019ZM378.257 414.019C378.103 405.16 374.461 396.72 368.124 390.538C361.787 384.355 353.268 380.929 344.422 381.007C335.575 381.084 327.118 384.658 320.89 390.951C314.662 397.244 311.167 405.746 311.167 414.606C311.167 423.467 314.662 431.969 320.89 438.261C327.118 444.554 335.575 448.128 344.422 448.205C353.268 448.283 361.787 444.857 368.124 438.675C374.461 432.492 378.103 424.052 378.257 415.193V413.981V414.019ZM225.95 474.629H258.628C258.868 474.634 259.106 474.59 259.329 474.501C259.551 474.411 259.754 474.277 259.923 474.108C260.093 473.938 260.226 473.735 260.316 473.512C260.405 473.289 260.449 473.05 260.443 472.81V355.379C260.471 355.127 260.443 354.871 260.364 354.63C260.284 354.389 260.154 354.168 259.982 353.981C259.81 353.795 259.6 353.647 259.367 353.549C259.133 353.45 258.881 353.402 258.628 353.409H225.95C225.71 353.404 225.472 353.448 225.249 353.537C225.027 353.627 224.825 353.76 224.655 353.93C224.485 354.1 224.352 354.303 224.263 354.526C224.173 354.749 224.13 354.987 224.135 355.228V472.659C224.13 472.899 224.173 473.138 224.263 473.361C224.352 473.584 224.485 473.786 224.655 473.956C224.825 474.126 225.027 474.26 225.249 474.349C225.472 474.439 225.71 474.482 225.95 474.477V474.629ZM538.583 353.409H501.442C501.163 353.408 500.887 353.472 500.637 353.597C500.388 353.722 500.171 353.904 500.005 354.129L473.038 389.055C472.989 389.106 472.93 389.146 472.865 389.173C472.8 389.2 472.73 389.215 472.66 389.215C472.589 389.215 472.52 389.2 472.455 389.173C472.39 389.146 472.331 389.106 472.282 389.055L445.239 354.129C445.073 353.904 444.856 353.722 444.606 353.597C444.357 353.472 444.081 353.408 443.802 353.409H406.699C406.359 353.413 406.026 353.512 405.739 353.696C405.452 353.879 405.223 354.14 405.077 354.448C404.931 354.756 404.874 355.099 404.914 355.438C404.953 355.777 405.087 356.098 405.3 356.364L450.685 413.186C450.833 413.382 450.912 413.622 450.912 413.867C450.912 414.113 450.833 414.353 450.685 414.549L405.3 471.371C405.149 471.559 405.037 471.775 404.97 472.007C404.903 472.24 404.884 472.483 404.912 472.722C404.94 472.962 405.016 473.194 405.134 473.404C405.253 473.614 405.412 473.799 405.602 473.947C405.931 474.19 406.328 474.323 406.737 474.326H443.878C444.157 474.327 444.432 474.263 444.682 474.138C444.932 474.013 445.149 473.83 445.315 473.606L472.282 438.679C472.328 438.624 472.385 438.579 472.451 438.548C472.516 438.518 472.588 438.502 472.66 438.502C472.732 438.502 472.803 438.518 472.869 438.548C472.934 438.579 472.992 438.624 473.038 438.679L500.005 473.606C500.171 473.83 500.388 474.013 500.637 474.138C500.887 474.263 501.163 474.327 501.442 474.326H538.62C538.961 474.322 539.294 474.223 539.581 474.039C539.868 473.856 540.097 473.595 540.243 473.287C540.389 472.978 540.445 472.635 540.406 472.297C540.366 471.958 540.233 471.637 540.02 471.371L494.634 414.549C494.467 414.362 494.374 414.119 494.374 413.867C494.374 413.616 494.467 413.373 494.634 413.186L540.02 356.364C540.313 355.986 540.446 355.508 540.389 355.033C540.332 354.558 540.091 354.124 539.717 353.826C539.39 353.576 538.994 353.43 538.583 353.409ZM704.052 473.379L698.189 456.559C698.119 456.342 697.982 456.153 697.799 456.017C697.616 455.882 697.396 455.806 697.168 455.802H647.584C647.357 455.806 647.136 455.882 646.953 456.017C646.77 456.153 646.634 456.342 646.563 456.559L640.701 473.379C640.569 473.734 640.332 474.042 640.021 474.258C639.71 474.475 639.34 474.591 638.961 474.591H607.607C607.367 474.596 607.129 474.552 606.906 474.463C606.683 474.373 606.481 474.24 606.312 474.07C606.142 473.9 606.008 473.697 605.919 473.474C605.83 473.251 605.786 473.013 605.791 472.772C605.755 472.585 605.755 472.392 605.791 472.204L646.714 354.773C646.846 354.417 647.083 354.11 647.394 353.893C647.705 353.677 648.075 353.56 648.454 353.561H696.147C696.526 353.56 696.896 353.677 697.207 353.893C697.518 354.11 697.755 354.417 697.887 354.773L738.81 472.204C738.887 472.431 738.919 472.67 738.904 472.909C738.888 473.147 738.826 473.381 738.721 473.595C738.616 473.81 738.469 474.002 738.289 474.16C738.11 474.317 737.901 474.438 737.675 474.515H737.108H705.716C705.334 474.527 704.959 474.415 704.646 474.197C704.332 473.979 704.098 473.665 703.976 473.303L704.052 473.379ZM671.866 379.206L656.321 425.27C656.273 425.406 656.253 425.551 656.261 425.696C656.27 425.84 656.307 425.982 656.37 426.112C656.433 426.243 656.522 426.359 656.63 426.455C656.739 426.551 656.865 426.624 657.002 426.671H687.599C687.774 426.677 687.947 426.639 688.103 426.561C688.259 426.483 688.394 426.368 688.495 426.225C688.596 426.083 688.66 425.918 688.682 425.744C688.704 425.571 688.683 425.395 688.62 425.232L672.925 379.206C672.867 379.08 672.768 378.977 672.644 378.915C672.52 378.853 672.379 378.836 672.244 378.865C672.156 378.882 672.074 378.923 672.007 378.983C671.94 379.043 671.892 379.12 671.866 379.206ZM556.737 474.591H589.415C589.655 474.596 589.893 474.552 590.116 474.463C590.338 474.373 590.54 474.24 590.71 474.07C590.88 473.9 591.013 473.697 591.102 473.474C591.192 473.251 591.235 473.013 591.23 472.772V355.341C591.235 355.101 591.192 354.862 591.102 354.639C591.013 354.416 590.88 354.214 590.71 354.044C590.54 353.874 590.338 353.74 590.116 353.651C589.893 353.561 589.655 353.518 589.415 353.523H556.737C556.255 353.523 555.794 353.715 555.453 354.056C555.113 354.396 554.922 354.859 554.922 355.341V472.772C554.922 473.255 555.113 473.717 555.453 474.058C555.794 474.399 556.255 474.591 556.737 474.591Z" fill="black"/>
</g>
<defs>
<clipPath id="clip0_5625_155">
<rect width="650" height="128" fill="white" transform="translate(89 350)"/>
</clipPath>
</defs>
</svg>
