<svg xmlns="http://www.w3.org/2000/svg" width="56" height="56" viewBox="0 0 56 56" role="img" aria-label="United States flag NDX">
  <defs><clipPath id="clip"><circle cx="28" cy="28" r="28"/></clipPath></defs>
  <g clip-path="url(#clip)">
    <rect y="0.0000" width="56" height="4.3077" fill="#b22234"/><rect y="4.3077" width="56" height="4.3077" fill="#ffffff"/><rect y="8.6154" width="56" height="4.3077" fill="#b22234"/><rect y="12.9231" width="56" height="4.3077" fill="#ffffff"/><rect y="17.2308" width="56" height="4.3077" fill="#b22234"/><rect y="21.5385" width="56" height="4.3077" fill="#ffffff"/><rect y="25.8462" width="56" height="4.3077" fill="#b22234"/><rect y="30.1538" width="56" height="4.3077" fill="#ffffff"/><rect y="34.4615" width="56" height="4.3077" fill="#b22234"/><rect y="38.7692" width="56" height="4.3077" fill="#ffffff"/><rect y="43.0769" width="56" height="4.3077" fill="#b22234"/><rect y="47.3846" width="56" height="4.3077" fill="#ffffff"/><rect y="51.6923" width="56" height="4.3077" fill="#b22234"/>
    <rect width="31" height="24" fill="#3c3b6e"/>
    <circle cx="3.80" cy="3.40" r="0.72" fill="#ffffff"/><circle cx="8.90" cy="3.40" r="0.72" fill="#ffffff"/><circle cx="14.00" cy="3.40" r="0.72" fill="#ffffff"/><circle cx="19.10" cy="3.40" r="0.72" fill="#ffffff"/><circle cx="24.20" cy="3.40" r="0.72" fill="#ffffff"/><circle cx="29.30" cy="3.40" r="0.72" fill="#ffffff"/><circle cx="3.80" cy="7.50" r="0.72" fill="#ffffff"/><circle cx="8.90" cy="7.50" r="0.72" fill="#ffffff"/><circle cx="14.00" cy="7.50" r="0.72" fill="#ffffff"/><circle cx="19.10" cy="7.50" r="0.72" fill="#ffffff"/><circle cx="24.20" cy="7.50" r="0.72" fill="#ffffff"/><circle cx="29.30" cy="7.50" r="0.72" fill="#ffffff"/><circle cx="3.80" cy="11.60" r="0.72" fill="#ffffff"/><circle cx="8.90" cy="11.60" r="0.72" fill="#ffffff"/><circle cx="14.00" cy="11.60" r="0.72" fill="#ffffff"/><circle cx="19.10" cy="11.60" r="0.72" fill="#ffffff"/><circle cx="24.20" cy="11.60" r="0.72" fill="#ffffff"/><circle cx="29.30" cy="11.60" r="0.72" fill="#ffffff"/><circle cx="3.80" cy="15.70" r="0.72" fill="#ffffff"/><circle cx="8.90" cy="15.70" r="0.72" fill="#ffffff"/><circle cx="14.00" cy="15.70" r="0.72" fill="#ffffff"/><circle cx="19.10" cy="15.70" r="0.72" fill="#ffffff"/><circle cx="24.20" cy="15.70" r="0.72" fill="#ffffff"/><circle cx="29.30" cy="15.70" r="0.72" fill="#ffffff"/><circle cx="3.80" cy="19.80" r="0.72" fill="#ffffff"/><circle cx="8.90" cy="19.80" r="0.72" fill="#ffffff"/><circle cx="14.00" cy="19.80" r="0.72" fill="#ffffff"/><circle cx="19.10" cy="19.80" r="0.72" fill="#ffffff"/><circle cx="24.20" cy="19.80" r="0.72" fill="#ffffff"/><circle cx="29.30" cy="19.80" r="0.72" fill="#ffffff"/><circle cx="6.35" cy="5.45" r="0.72" fill="#ffffff"/><circle cx="11.45" cy="5.45" r="0.72" fill="#ffffff"/><circle cx="16.55" cy="5.45" r="0.72" fill="#ffffff"/><circle cx="21.65" cy="5.45" r="0.72" fill="#ffffff"/><circle cx="26.75" cy="5.45" r="0.72" fill="#ffffff"/><circle cx="6.35" cy="9.55" r="0.72" fill="#ffffff"/><circle cx="11.45" cy="9.55" r="0.72" fill="#ffffff"/><circle cx="16.55" cy="9.55" r="0.72" fill="#ffffff"/><circle cx="21.65" cy="9.55" r="0.72" fill="#ffffff"/><circle cx="26.75" cy="9.55" r="0.72" fill="#ffffff"/><circle cx="6.35" cy="13.65" r="0.72" fill="#ffffff"/><circle cx="11.45" cy="13.65" r="0.72" fill="#ffffff"/><circle cx="16.55" cy="13.65" r="0.72" fill="#ffffff"/><circle cx="21.65" cy="13.65" r="0.72" fill="#ffffff"/><circle cx="26.75" cy="13.65" r="0.72" fill="#ffffff"/><circle cx="6.35" cy="17.75" r="0.72" fill="#ffffff"/><circle cx="11.45" cy="17.75" r="0.72" fill="#ffffff"/><circle cx="16.55" cy="17.75" r="0.72" fill="#ffffff"/><circle cx="21.65" cy="17.75" r="0.72" fill="#ffffff"/><circle cx="26.75" cy="17.75" r="0.72" fill="#ffffff"/>
  </g>
</svg>
