<svg width="827" height="827" viewBox="0 0 827 827" fill="none" xmlns="http://www.w3.org/2000/svg">
<g clip-path="url(#clip0_5806_155)">
<path d="M0 0H827V827H0V0Z" fill="white"/>
<path d="M688.971 413.999C688.971 448.415 682.807 481.829 670.646 513.405H631.997C641.992 293.876 358.455 198.146 233.513 377.912C213.189 309.915 235.345 233.23 287.488 186.618C306.479 169.243 329.135 155.877 353.291 147.691C520.215 98.7393 691.636 242.586 688.971 413.999Z" fill="#2B2B2B"/>
<path d="M688.984 544.981V690.332H413.444C409.945 690.332 406.78 690.332 403.615 689.998C332.148 687.492 265.345 657.586 215.534 605.962C107.584 500.708 115.913 306.574 227.362 210.509C188.213 272.826 184.049 355.024 216.367 420.849C252.184 495.529 329.982 544.981 413.444 544.814C413.444 544.981 688.984 544.981 688.984 544.981Z" fill="#2B2B2B"/>
</g>
<defs>
<clipPath id="clip0_5806_155">
<rect width="827" height="827" fill="white"/>
</clipPath>
</defs>
</svg>
