<svg width="827" height="827" viewBox="0 0 827 827" fill="none" xmlns="http://www.w3.org/2000/svg">
<rect width="827" height="827" fill="#76B900"/>
<g clip-path="url(#clip0_5219_237)">
<path d="M334.964 330.539V293.625C338.773 293.244 342.201 293.244 346.01 293.244C447.709 290.2 514.366 380.772 514.366 380.772C514.366 380.772 442.377 480.097 365.055 480.097C354.771 480.097 344.868 478.575 334.964 475.15V362.886C374.577 367.833 382.576 384.958 406.192 424.536L459.136 380.011C459.136 380.011 420.285 329.397 355.533 329.397C348.677 329.397 341.821 329.778 334.964 330.539ZM334.964 208V263.181L346.01 262.419C487.322 257.472 579.498 378.108 579.498 378.108C579.498 378.108 473.61 507.117 363.532 507.117C354.009 507.117 344.487 506.356 334.964 504.453V538.703C342.582 539.464 350.581 540.225 358.58 540.225C461.04 540.225 535.315 487.708 607.304 426.058C619.111 435.572 667.866 458.786 678.15 468.681C609.97 525.764 450.756 571.811 360.484 571.811C351.724 571.811 343.725 571.431 335.345 570.289V619H725V208C725 208 334.964 208 334.964 208ZM334.964 475.531V504.833C240.122 487.708 213.84 389.144 213.84 389.144C213.84 389.144 259.547 338.911 334.964 330.539V362.506H334.584C294.971 357.558 263.737 394.853 263.737 394.853C263.737 394.853 281.639 457.264 334.964 475.531ZM166.609 384.958C166.609 384.958 222.601 301.997 334.964 293.625V263.561C210.412 273.456 103 378.489 103 378.489C103 378.489 163.943 554.686 334.964 570.669V538.703C209.269 523.1 166.609 384.958 166.609 384.958Z" fill="white"/>
</g>
<defs>
<clipPath id="clip0_5219_237">
<rect width="622" height="411" fill="white" transform="translate(103 208)"/>
</clipPath>
</defs>
</svg>
