<svg width="827" height="827" viewBox="0 0 827 827" fill="none" xmlns="http://www.w3.org/2000/svg">
<g clip-path="url(#clip0_5856_155)">
<path d="M0 0H827V827H0V0Z" fill="#032D42"/>
<g clip-path="url(#clip1_5856_155)">
<path fill-rule="evenodd" clip-rule="evenodd" d="M418.044 169.6C271.604 168.76 150.484 288.56 149.244 435.56C148.604 513.36 181.004 583.64 233.164 633C252.164 650.96 281.484 652.68 302.084 636.64C332.484 612.88 371.564 598.76 416.484 598.76C461.404 598.76 500.444 612.92 530.884 636.64C551.644 652.84 581.084 650.76 600.204 632.6C651.644 583.72 683.764 514.48 683.764 437.8C683.764 290.2 564.924 170.4 418.084 169.56M416.524 571.92C337.204 571.92 282.924 512.2 282.924 438.32C282.924 364.44 337.204 303.68 416.524 303.68C495.844 303.68 550.124 364.4 550.124 438.32C550.124 512.24 495.884 571.92 416.524 571.92Z" fill="#62D84E"/>
</g>
</g>
<defs>
<clipPath id="clip0_5856_155">
<rect width="827" height="827" fill="white"/>
</clipPath>
<clipPath id="clip1_5856_155">
<rect width="600" height="600" fill="white" transform="translate(114 114)"/>
</clipPath>
</defs>
</svg>
