<svg width="827" height="827" viewBox="0 0 827 827" fill="none" xmlns="http://www.w3.org/2000/svg">
    <rect width="827" height="827" fill="#ECECEC" />
    <path
        d="M662.747 401.395C648.463 401.395 615.256 401.448 595.332 401.448C588.269 401.448 586.213 400.182 581.786 395.435C577.358 390.688 555.326 367.058 555.326 367.058C527.337 336.888 459.079 270.219 434.147 249.174C424.765 241.262 414.17 241.526 414.012 241.526C413.854 241.526 403.26 241.262 393.877 249.174C368.946 270.219 300.687 336.888 272.699 367.058C272.699 367.058 250.666 390.688 246.239 395.435C241.811 400.182 239.755 401.448 232.692 401.448C212.716 401.448 179.561 401.395 165.277 401.395C161.798 401.395 159.637 397.176 162.009 394.486C190.63 364.949 345.49 205.132 374.48 182.083C384.6 173.96 397.62 168 414.012 168C430.352 168 443.424 173.96 453.544 182.083C482.534 205.132 637.394 364.949 666.015 394.486C668.334 397.176 666.279 401.395 662.747 401.395ZM165.225 425.605C179.509 425.605 212.716 425.552 232.64 425.552C239.703 425.552 241.758 426.765 246.186 431.512C250.614 436.259 272.646 459.889 272.646 459.889C300.635 490.059 368.893 556.728 393.825 577.773C403.207 585.685 413.801 585.421 413.96 585.421C414.118 585.421 424.712 585.685 434.094 577.773C459.026 556.781 527.284 490.112 555.273 459.889C555.273 459.889 577.306 436.259 581.733 431.512C586.161 426.765 588.216 425.552 595.279 425.552C615.256 425.552 648.41 425.605 662.695 425.605C666.173 425.605 668.334 429.824 665.963 432.514C637.341 462.051 482.534 621.815 453.492 644.917C443.424 653.04 430.352 659 413.96 659C397.62 659 384.6 653.04 374.48 644.917C345.438 621.815 190.63 462.051 162.009 432.514C159.637 429.824 161.746 425.605 165.225 425.605ZM401.784 480.248V546.443C401.784 549.555 398.779 550.926 396.249 548.711C367.786 522.339 304.377 459.467 283.082 435.099C272.962 424.286 273.858 413.368 273.858 413.368C273.858 413.368 272.91 402.345 283.082 391.585C304.377 367.217 367.786 304.345 396.249 277.973C398.674 275.705 401.784 277.392 401.784 280.03V346.382C401.784 352.395 400.519 355.455 395.3 360.307C382.545 372.016 360.038 393.8 351.657 403.61C347.862 407.935 348.126 413.315 348.126 413.315C348.126 413.315 347.862 418.748 351.657 423.073C360.038 432.831 382.545 454.667 395.3 466.324C400.519 471.176 401.784 474.235 401.784 480.248ZM432.724 466.377C445.48 454.72 467.987 432.884 476.367 423.126C480.162 418.801 479.899 413.368 479.899 413.368C479.899 413.368 480.162 407.988 476.367 403.663C467.987 393.853 445.48 372.069 432.724 360.36C427.506 355.507 426.241 352.448 426.241 346.435V280.293C426.241 277.181 429.245 275.757 431.775 277.973C460.238 304.345 523.648 367.217 544.889 391.585C555.062 402.397 554.113 413.368 554.113 413.368C554.113 413.368 555.062 424.339 544.889 435.152C523.648 459.52 460.238 522.391 431.775 548.764C429.245 550.979 426.241 549.608 426.241 546.443V480.301C426.294 474.288 427.506 471.229 432.724 466.377Z"
        fill="#FFB100" />
</svg>