<svg width="827" height="827" viewBox="0 0 827 827" fill="none" xmlns="http://www.w3.org/2000/svg">
<rect width="827" height="827" fill="#1E2124"/>
<g clip-path="url(#clip0_5208_455)">
<path d="M413.925 197C324.714 197 250.797 271.714 250.797 361.71C250.797 452.555 323.865 526.42 413.075 526.42C502.286 526.42 575.353 452.555 575.353 361.71C576.203 271.714 503.135 197 413.925 197ZM413.925 476.327C351.053 476.327 300.925 425.386 300.925 362.559C300.925 298.882 351.053 247.941 413.925 247.941C476.797 247.941 526.075 298.882 526.075 361.71C524.376 425.386 474.248 476.327 413.925 476.327ZM558.361 511.986L413.925 575.663L269.489 511.986L244 557.833L413.925 630L583.85 557.833L558.361 511.986Z" fill="white"/>
</g>
<defs>
<clipPath id="clip0_5208_455">
<rect width="339" height="433" fill="white" transform="translate(244 197)"/>
</clipPath>
</defs>
</svg>
