<svg width="827" height="827" viewBox="0 0 827 827" fill="none" xmlns="http://www.w3.org/2000/svg">
<g clip-path="url(#clip0_5802_159)">
<path d="M0 0H827V827H0V0Z" fill="#F0F3FA"/>
<path d="M369.193 488.521V243.67C369.193 237.795 366.859 232.16 362.705 228.006C358.551 223.852 352.916 221.518 347.041 221.518C341.166 221.518 335.532 223.852 331.378 228.006C327.223 232.16 324.89 237.795 324.89 243.67V539.913C324.89 553.66 319.428 566.845 309.707 576.566C299.986 586.287 286.802 591.748 273.054 591.748C259.307 591.748 246.122 586.287 236.401 576.566C226.68 566.845 221.219 553.66 221.219 539.913V355.61C221.219 349.774 218.901 344.177 214.774 340.051C210.648 335.924 205.051 333.606 199.215 333.606C193.379 333.606 187.782 335.924 183.656 340.051C179.529 344.177 177.211 349.774 177.211 355.61V423.542C177.211 437.251 171.765 450.397 162.072 460.091C152.379 469.784 139.232 475.23 125.523 475.23C111.815 475.23 98.6681 469.784 88.9749 460.091C79.2816 450.397 73.8359 437.251 73.8359 423.542V406.116C73.8359 402.199 75.3918 398.443 78.1613 395.674C80.9309 392.904 84.6871 391.348 88.6038 391.348C92.5205 391.348 96.2767 392.904 99.0462 395.674C101.816 398.443 103.372 402.199 103.372 406.116V423.69C103.372 429.565 105.705 435.199 109.86 439.353C114.014 443.508 119.648 445.842 125.523 445.842C131.398 445.842 137.033 443.508 141.187 439.353C145.341 435.199 147.675 429.565 147.675 423.69V355.758C148.66 342.762 154.517 330.619 164.074 321.758C173.631 312.898 186.183 307.975 199.215 307.975C212.248 307.975 224.799 312.898 234.356 321.758C243.913 330.619 249.77 342.762 250.755 355.758V539.913C250.755 545.827 253.104 551.499 257.286 555.681C261.468 559.863 267.14 562.212 273.054 562.212C278.969 562.212 284.64 559.863 288.822 555.681C293.004 551.499 295.354 545.827 295.354 539.913V243.67C295.354 229.961 300.799 216.814 310.493 207.121C320.186 197.428 333.333 191.982 347.041 191.982C360.75 191.982 373.897 197.428 383.59 207.121C393.283 216.814 398.729 229.961 398.729 243.67V488.521C398.729 492.437 397.173 496.194 394.403 498.963C391.634 501.733 387.878 503.289 383.961 503.289C380.044 503.289 376.288 501.733 373.518 498.963C370.749 496.194 369.193 492.437 369.193 488.521ZM664.55 487.339V361.812C664.55 355.937 662.216 350.303 658.062 346.149C653.908 341.995 648.273 339.661 642.398 339.661C636.523 339.661 630.889 341.995 626.735 346.149C622.581 350.303 620.247 355.937 620.247 361.812V509.491C620.247 523.199 614.801 536.346 605.108 546.04C595.414 555.733 582.268 561.179 568.559 561.179C554.851 561.179 541.704 555.733 532.011 546.04C522.317 536.346 516.872 523.199 516.872 509.491V243.67C516.872 237.795 514.538 232.16 510.384 228.006C506.229 223.852 500.595 221.518 494.72 221.518C488.845 221.518 483.21 223.852 479.056 228.006C474.902 232.16 472.568 237.795 472.568 243.67V583.33C472.568 597.039 467.122 610.186 457.429 619.879C447.736 629.572 434.589 635.018 420.881 635.018C407.172 635.018 394.025 629.572 384.332 619.879C374.639 610.186 369.193 597.039 369.193 583.33V547.74C369.193 543.823 370.749 540.067 373.518 537.297C376.288 534.528 380.044 532.972 383.961 532.972C387.878 532.972 391.634 534.528 394.403 537.297C397.173 540.067 398.729 543.823 398.729 547.74V583.33C398.729 589.205 401.063 594.84 405.217 598.994C409.371 603.148 415.006 605.482 420.881 605.482C426.756 605.482 432.39 603.148 436.544 598.994C440.699 594.84 443.032 589.205 443.032 583.33V243.67C443.032 229.961 448.478 216.814 458.171 207.121C467.865 197.428 481.012 191.982 494.72 191.982C508.428 191.982 521.575 197.428 531.268 207.121C540.962 216.814 546.407 229.961 546.407 243.67V509.491C546.407 515.366 548.741 521 552.895 525.155C557.05 529.309 562.684 531.643 568.559 531.643C574.434 531.643 580.069 529.309 584.223 525.155C588.377 521 590.711 515.366 590.711 509.491V361.812C590.711 348.104 596.157 334.957 605.85 325.264C615.543 315.571 628.69 310.125 642.398 310.125C656.107 310.125 669.254 315.571 678.947 325.264C688.64 334.957 694.086 348.104 694.086 361.812V487.339C694.086 491.256 692.53 495.012 689.761 497.782C686.991 500.551 683.235 502.107 679.318 502.107C675.401 502.107 671.645 500.551 668.876 497.782C666.106 495.012 664.55 491.256 664.55 487.339Z" fill="url(#paint0_linear_5802_159)"/>
</g>
<defs>
<linearGradient id="paint0_linear_5802_159" x1="73.8359" y1="429.597" x2="694.086" y2="427.825" gradientUnits="userSpaceOnUse">
<stop stop-color="#E11A80"/>
<stop offset="0.56" stop-color="#F34456"/>
<stop offset="1" stop-color="#FF5F3A"/>
</linearGradient>
<clipPath id="clip0_5802_159">
<rect width="827" height="827" fill="white"/>
</clipPath>
</defs>
</svg>
