<svg width="827" height="827" viewBox="0 0 827 827" fill="none" xmlns="http://www.w3.org/2000/svg">
<g clip-path="url(#clip0_5868_335)">
<path d="M0 0H827V827H0V0Z" fill="#2266FF"/>
<path d="M179.073 538.323L123.019 290.256C122.904 289.654 123.324 289.127 123.935 289.127H167.588C168.046 289.127 168.427 289.428 168.504 289.88L209.104 474.086C209.181 474.5 209.6 474.838 210.02 474.838H215.363C215.821 474.838 216.202 474.538 216.279 474.124L260.16 289.842C260.275 289.428 260.657 289.127 261.076 289.127H311.713C312.171 289.127 312.552 289.428 312.629 289.842L356.473 474.086C356.588 474.5 356.969 474.801 357.389 474.801H362.731C363.189 474.801 363.57 474.5 363.647 474.048L404.247 289.842C404.324 289.428 404.743 289.089 405.163 289.089H448.473C449.084 289.089 449.542 289.654 449.389 290.218L392.953 538.285C392.838 538.698 392.457 539 392.037 539H332.738C332.28 539 331.899 538.698 331.822 538.285L289.81 359.761C289.695 359.347 289.314 359.046 288.894 359.046H283.514C283.056 359.046 282.675 359.347 282.598 359.761L240.585 538.285C240.471 538.698 240.089 539 239.67 539H179.989C179.531 539 179.15 538.698 179.073 538.285V538.323Z" fill="white"/>
<path d="M705.35 437.945V389.965C705.35 376.343 702.64 363.096 697.298 350.678C692.147 338.636 684.744 327.836 675.357 318.578C665.97 309.321 655.018 302.021 642.808 296.94C630.177 291.672 616.783 289 602.969 289H473.346C472.811 289 472.391 289.414 472.391 289.941V538.008C472.391 538.534 472.811 538.949 473.346 538.949H602.969C616.783 538.949 630.215 536.277 642.808 531.008C655.018 525.928 665.97 518.628 675.357 509.37C684.744 500.113 692.147 489.313 697.298 477.271C702.64 464.815 705.35 451.606 705.35 437.983V437.945ZM659.75 437.08C659.75 452.621 654.637 467.261 643.609 478.362C632.161 489.877 616.287 496.048 599.955 496.048H518.944C518.411 496.048 517.99 495.634 517.99 495.108V332.803C517.99 332.276 518.411 331.862 518.944 331.862H599.955C616.287 331.862 632.161 338.034 643.609 349.549C654.637 360.65 659.75 375.251 659.75 390.831V437.117V437.08Z" fill="white"/>
</g>
<defs>
<clipPath id="clip0_5868_335">
<rect width="827" height="827" fill="white"/>
</clipPath>
</defs>
</svg>
