<svg width="827" height="827" viewBox="0 0 827 827" fill="none" xmlns="http://www.w3.org/2000/svg">
<g clip-path="url(#clip0_5859_156)">
<path d="M0 0H827V827H0V0Z" fill="#E1FF4F"/>
<path d="M620.252 463.858V236.286H546.413V531.643C532.531 531.938 500.78 528.689 485.865 496.938L390.907 282.804C384.114 267.298 361.815 236.286 325.929 236.286C281.33 236.286 265.824 278.669 265.824 295.357C225.064 295.357 191.984 325.779 191.984 363.142V590.714H265.824V295.357H274.241C285.317 295.062 311.161 298.901 325.929 330.8L421.92 547.297C429.304 561.769 452.489 590.714 488.375 590.714C533.122 590.714 546.413 547.74 546.413 531.643C587.172 531.643 620.252 501.221 620.252 463.858Z" fill="#052B42"/>
</g>
<defs>
<clipPath id="clip0_5859_156">
<rect width="827" height="827" fill="white"/>
</clipPath>
</defs>
</svg>
