<svg width="827" height="827" viewBox="0 0 827 827" fill="none" xmlns="http://www.w3.org/2000/svg">
<rect width="827" height="827" fill="#FA6710"/>
<path d="M203.285 376.653C202.603 369.778 199.677 364.437 194.506 360.631C189.336 356.824 182.319 354.92 173.455 354.92C167.432 354.92 162.347 355.773 158.199 357.477C154.052 359.125 150.87 361.426 148.654 364.381C146.495 367.335 145.415 370.688 145.415 374.438C145.302 377.562 145.955 380.29 147.375 382.619C148.853 384.949 150.87 386.966 153.427 388.67C155.983 390.318 158.938 391.767 162.29 393.017C165.642 394.21 169.222 395.233 173.029 396.085L188.711 399.835C196.324 401.54 203.313 403.812 209.677 406.653C216.04 409.494 221.552 412.989 226.211 417.136C230.87 421.284 234.478 426.17 237.035 431.795C239.648 437.42 240.983 443.869 241.04 451.142C240.983 461.824 238.256 471.085 232.858 478.926C227.517 486.71 219.79 492.761 209.677 497.08C199.62 501.341 187.489 503.472 173.285 503.472C159.194 503.472 146.921 501.312 136.466 496.994C126.069 492.676 117.944 486.284 112.091 477.818C106.296 469.295 103.256 458.756 102.972 446.199H138.682C139.08 452.051 140.756 456.937 143.711 460.858C146.722 464.722 150.728 467.648 155.728 469.636C160.785 471.568 166.495 472.534 172.858 472.534C179.108 472.534 184.535 471.625 189.137 469.807C193.796 467.989 197.404 465.46 199.961 462.222C202.517 458.983 203.796 455.261 203.796 451.057C203.796 447.136 202.631 443.841 200.302 441.17C198.029 438.5 194.677 436.227 190.245 434.352C185.87 432.477 180.5 430.773 174.137 429.239L155.131 424.466C140.415 420.886 128.796 415.29 120.273 407.676C111.75 400.062 107.517 389.807 107.574 376.909C107.517 366.341 110.33 357.108 116.012 349.21C121.75 341.312 129.62 335.148 139.62 330.716C149.62 326.284 160.983 324.068 173.711 324.068C186.665 324.068 197.972 326.284 207.631 330.716C217.347 335.148 224.904 341.312 230.302 349.21C235.699 357.108 238.483 366.256 238.654 376.653H203.285ZM254.415 356.881V326.455H397.767V356.881H344.33V501H307.852V356.881H254.415ZM416.575 501V326.455H485.439C498.621 326.455 509.871 328.812 519.189 333.528C528.564 338.187 535.694 344.807 540.581 353.386C545.524 361.909 547.996 371.937 547.996 383.472C547.996 395.062 545.496 405.034 540.496 413.386C535.496 421.682 528.251 428.045 518.763 432.477C509.331 436.909 497.91 439.125 484.501 439.125H438.393V409.466H478.535C485.581 409.466 491.433 408.5 496.092 406.568C500.751 404.636 504.217 401.739 506.49 397.875C508.819 394.011 509.984 389.21 509.984 383.472C509.984 377.676 508.819 372.79 506.49 368.812C504.217 364.835 500.723 361.824 496.007 359.778C491.348 357.676 485.467 356.625 478.365 356.625H453.479V501H416.575ZM510.837 421.568L554.217 501H513.479L471.035 421.568H510.837ZM723.281 387.562H685.951C685.27 382.733 683.877 378.443 681.775 374.693C679.673 370.886 676.974 367.648 673.679 364.977C670.383 362.307 666.576 360.261 662.258 358.841C657.997 357.42 653.366 356.71 648.366 356.71C639.332 356.71 631.463 358.955 624.758 363.443C618.054 367.875 612.855 374.352 609.162 382.875C605.468 391.341 603.622 401.625 603.622 413.727C603.622 426.17 605.468 436.625 609.162 445.091C612.912 453.557 618.139 459.949 624.843 464.267C631.548 468.585 639.304 470.744 648.11 470.744C653.054 470.744 657.627 470.091 661.832 468.784C666.093 467.477 669.872 465.574 673.167 463.074C676.463 460.517 679.19 457.42 681.349 453.784C683.565 450.148 685.099 446 685.951 441.341L723.281 441.511C722.315 449.523 719.9 457.25 716.037 464.693C712.23 472.08 707.088 478.699 700.61 484.551C694.19 490.347 686.52 494.949 677.599 498.358C668.735 501.71 658.707 503.386 647.514 503.386C631.946 503.386 618.025 499.864 605.752 492.818C593.537 485.773 583.877 475.574 576.775 462.222C569.73 448.869 566.207 432.705 566.207 413.727C566.207 394.693 569.787 378.5 576.946 365.148C584.105 351.795 593.821 341.625 606.093 334.636C618.366 327.591 632.173 324.068 647.514 324.068C657.627 324.068 667.002 325.489 675.639 328.33C684.332 331.17 692.031 335.318 698.735 340.773C705.44 346.17 710.895 352.79 715.099 360.631C719.36 368.472 722.088 377.449 723.281 387.562Z" fill="black"/>
</svg>
